<svg xmlns="http://www.w3.org/2000/svg" xmlns:xlink="http://www.w3.org/1999/xlink" width="400" zoomAndPan="magnify" viewBox="0 0 300 74.999997" height="100" preserveAspectRatio="xMidYMid meet" version="1.0"><defs><g/><clipPath id="88dd98f845"><rect x="0" width="171" y="0" height="72"/></clipPath></defs><path fill="#f4f1e8" d="M 85.375 67.15625 C 84.308594 68.191406 83.320312 68.488281 82.554688 68 C 81.996094 67.644531 81.496094 66.03125 81.023438 63.066406 C 80.628906 60.578125 80.5625 58.558594 80.570312 49.636719 C 80.578125 43.195312 80.703125 37.957031 80.898438 36.089844 C 81.074219 34.414062 81.15625 32.988281 81.082031 32.914062 C 81.007812 32.839844 79.59375 33.140625 77.9375 33.582031 C 69.644531 35.78125 65.316406 35.886719 59.355469 34.027344 L 57.359375 33.40625 L 55.839844 35.773438 C 55.007812 37.074219 53.515625 39.335938 52.527344 40.800781 C 51.542969 42.261719 50.773438 43.496094 50.820312 43.542969 C 50.867188 43.589844 51.519531 43.496094 52.269531 43.335938 C 53.015625 43.175781 54.480469 43.097656 55.523438 43.164062 C 57.089844 43.265625 57.601562 43.417969 58.484375 44.039062 C 60.011719 45.109375 61.304688 47.113281 62.152344 49.699219 C 62.808594 51.699219 62.890625 52.296875 62.890625 55.269531 C 62.890625 59.394531 62.34375 61.144531 60.457031 63.082031 C 58.617188 64.96875 57.402344 65.503906 54.945312 65.511719 C 53.050781 65.515625 52.785156 65.449219 51.5625 64.664062 C 49.964844 63.636719 48.796875 61.96875 48.558594 60.371094 C 48.320312 58.789062 48.558594 58.664062 49.15625 60.0625 C 50.238281 62.589844 52.304688 64.097656 54.695312 64.097656 C 57.070312 64.097656 59.140625 62.597656 60.261719 60.058594 C 60.695312 59.078125 60.746094 58.472656 60.664062 55.308594 C 60.574219 51.777344 60.546875 51.636719 59.660156 49.757812 C 58.019531 46.28125 56.164062 44.894531 53.664062 45.269531 C 52 45.519531 48.722656 47.273438 46.824219 48.925781 C 44.429688 51.019531 44.160156 51.171875 43.414062 50.832031 C 42.335938 50.339844 42.636719 49.566406 44.980469 46.820312 C 46.179688 45.410156 47.945312 43.097656 48.902344 41.679688 C 50.816406 38.84375 54.328125 32.117188 55.21875 29.585938 C 55.855469 27.773438 56.460938 26.972656 57.183594 26.972656 C 58.132812 26.972656 58.652344 27.496094 59.050781 28.859375 C 59.519531 30.484375 60.078125 31.058594 62.121094 32.011719 C 63.605469 32.707031 63.800781 32.734375 67.753906 32.734375 C 70.714844 32.734375 72.457031 32.605469 74.03125 32.273438 C 77.140625 31.621094 81.078125 30.371094 81.449219 29.925781 C 81.625 29.714844 81.921875 28.476562 82.121094 27.171875 C 82.625 23.785156 83.15625 21.210938 84.199219 17.109375 C 86.414062 8.382812 89.007812 3.394531 92.070312 1.964844 C 94.253906 0.949219 96.121094 1.289062 98.089844 3.058594 C 100.195312 4.953125 101.179688 7.871094 101.179688 12.226562 C 101.179688 16.851562 99.75 20.222656 96.34375 23.621094 C 93.96875 25.988281 91.984375 27.398438 88.054688 29.511719 C 84.328125 31.515625 84.617188 31.058594 84.011719 35.933594 C 83.097656 43.316406 82.664062 59.640625 83.273438 63.675781 C 83.707031 66.546875 84.121094 66.953125 85.9375 66.292969 C 86.25 66.179688 86.027344 66.515625 85.375 67.15625 Z M 85.300781 27.640625 C 85.300781 28.4375 85.707031 28.351562 88.117188 27.03125 C 93.289062 24.199219 97.042969 20.414062 98.339844 16.714844 C 99.78125 12.613281 98.953125 7.257812 96.539062 5.074219 C 93.199219 2.0625 90.074219 6.597656 86.996094 18.902344 C 86.222656 22.003906 85.300781 26.753906 85.300781 27.640625 Z M 92.289062 57.28125 C 91.320312 57.78125 90.640625 57.820312 90.214844 57.398438 C 89.613281 56.792969 89.933594 56.390625 91.628906 55.628906 C 92.574219 55.203125 94.367188 54.273438 95.609375 53.554688 C 96.847656 52.839844 97.945312 52.339844 98.046875 52.445312 C 98.34375 52.746094 93.980469 56.414062 92.289062 57.28125 Z M 92.289062 57.28125 " fill-opacity="1" fill-rule="nonzero"/><g transform="matrix(1, 0, 0, 1, 104, -0.000000000000001893)"><g clip-path="url(#88dd98f845)"><g fill="#f4f1e8" fill-opacity="1"><g transform="translate(0.363721, 54.839972)"><g><path d="M 21.671875 0.703125 C 18.003906 0.703125 14.738281 -0.148438 11.875 -1.859375 C 9.007812 -3.578125 6.796875 -5.90625 5.234375 -8.84375 C 3.679688 -11.789062 2.90625 -15 2.90625 -18.46875 C 2.90625 -22.539062 3.929688 -26.023438 5.984375 -28.921875 C 8.035156 -31.828125 10.671875 -34.007812 13.890625 -35.46875 C 17.109375 -36.925781 20.394531 -37.65625 23.75 -37.65625 C 27.5 -37.65625 30.796875 -36.773438 33.640625 -35.015625 C 36.484375 -33.265625 38.660156 -30.945312 40.171875 -28.0625 C 41.691406 -25.1875 42.453125 -22.128906 42.453125 -18.890625 C 42.453125 -15.296875 41.503906 -12 39.609375 -9 C 37.722656 -6 35.1875 -3.628906 32 -1.890625 C 28.820312 -0.160156 25.378906 0.703125 21.671875 0.703125 Z M 23.625 -0.765625 C 25.832031 -0.765625 27.816406 -1.40625 29.578125 -2.6875 C 31.335938 -3.976562 32.707031 -5.851562 33.6875 -8.3125 C 34.675781 -10.78125 35.171875 -13.734375 35.171875 -17.171875 C 35.171875 -20.804688 34.617188 -24.050781 33.515625 -26.90625 C 32.410156 -29.769531 30.8125 -32.007812 28.71875 -33.625 C 26.625 -35.25 24.175781 -36.0625 21.375 -36.0625 C 17.78125 -36.0625 15.015625 -34.707031 13.078125 -32 C 11.148438 -29.300781 10.1875 -25.523438 10.1875 -20.671875 C 10.1875 -16.835938 10.765625 -13.410156 11.921875 -10.390625 C 13.085938 -7.367188 14.6875 -5.007812 16.71875 -3.3125 C 18.757812 -1.613281 21.0625 -0.765625 23.625 -0.765625 Z M 23.625 -0.765625 "/></g></g></g><g fill="#f4f1e8" fill-opacity="1"><g transform="translate(45.730867, 54.839972)"><g><path d="M 12.609375 -5.03125 C 12.609375 -4.007812 12.6875 -3.269531 12.84375 -2.8125 C 13.007812 -2.351562 13.316406 -2.046875 13.765625 -1.890625 C 14.222656 -1.734375 14.960938 -1.65625 15.984375 -1.65625 L 18 -1.65625 C 21.082031 -1.65625 23.75 -2.472656 26 -4.109375 C 28.25 -5.753906 29.75 -7.976562 30.5 -10.78125 C 30.5 -10.851562 30.578125 -10.890625 30.734375 -10.890625 C 30.816406 -10.890625 30.90625 -10.859375 31 -10.796875 C 31.101562 -10.742188 31.15625 -10.695312 31.15625 -10.65625 C 30.789062 -6.75 30.609375 -3.492188 30.609375 -0.890625 C 30.609375 -0.578125 30.539062 -0.347656 30.40625 -0.203125 C 30.269531 -0.0664062 30.046875 0 29.734375 0 L 1.78125 0 C 1.695312 0 1.65625 -0.113281 1.65625 -0.34375 C 1.65625 -0.582031 1.695312 -0.703125 1.78125 -0.703125 C 3.039062 -0.703125 3.957031 -0.800781 4.53125 -1 C 5.101562 -1.195312 5.5 -1.582031 5.71875 -2.15625 C 5.9375 -2.726562 6.046875 -3.609375 6.046875 -4.796875 L 6.046875 -32.21875 C 6.046875 -33.394531 5.9375 -34.257812 5.71875 -34.8125 C 5.5 -35.375 5.09375 -35.757812 4.5 -35.96875 C 3.90625 -36.1875 3 -36.296875 1.78125 -36.296875 C 1.695312 -36.296875 1.65625 -36.414062 1.65625 -36.65625 C 1.65625 -36.894531 1.695312 -37.015625 1.78125 -37.015625 L 4.796875 -36.953125 C 6.609375 -36.867188 8.109375 -36.828125 9.296875 -36.828125 C 10.484375 -36.828125 11.984375 -36.867188 13.796875 -36.953125 L 16.8125 -37.015625 C 16.9375 -37.015625 17 -36.894531 17 -36.65625 C 17 -36.414062 16.9375 -36.296875 16.8125 -36.296875 C 15.59375 -36.296875 14.6875 -36.1875 14.09375 -35.96875 C 13.5 -35.757812 13.101562 -35.367188 12.90625 -34.796875 C 12.707031 -34.222656 12.609375 -33.34375 12.609375 -32.15625 Z M 12.609375 -5.03125 "/></g></g></g><g fill="#f4f1e8" fill-opacity="1"><g transform="translate(78.009067, 54.839972)"><g><path d="M 13.4375 -4.796875 C 13.4375 -3.566406 13.535156 -2.675781 13.734375 -2.125 C 13.929688 -1.570312 14.316406 -1.195312 14.890625 -1 C 15.460938 -0.800781 16.378906 -0.703125 17.640625 -0.703125 C 17.765625 -0.703125 17.828125 -0.582031 17.828125 -0.34375 C 17.828125 -0.113281 17.765625 0 17.640625 0 C 16.335938 0 15.3125 -0.0195312 14.5625 -0.0625 L 10.0625 -0.125 L 5.6875 -0.0625 C 4.894531 -0.0195312 3.828125 0 2.484375 0 C 2.410156 0 2.375 -0.113281 2.375 -0.34375 C 2.375 -0.582031 2.410156 -0.703125 2.484375 -0.703125 C 3.742188 -0.703125 4.671875 -0.800781 5.265625 -1 C 5.859375 -1.195312 6.265625 -1.582031 6.484375 -2.15625 C 6.703125 -2.726562 6.8125 -3.609375 6.8125 -4.796875 L 6.8125 -32.21875 C 6.8125 -33.394531 6.703125 -34.257812 6.484375 -34.8125 C 6.265625 -35.375 5.859375 -35.757812 5.265625 -35.96875 C 4.671875 -36.1875 3.742188 -36.296875 2.484375 -36.296875 C 2.410156 -36.296875 2.375 -36.414062 2.375 -36.65625 C 2.375 -36.894531 2.410156 -37.015625 2.484375 -37.015625 L 5.6875 -36.953125 C 7.5 -36.867188 8.957031 -36.828125 10.0625 -36.828125 C 11.289062 -36.828125 12.8125 -36.867188 14.625 -36.953125 L 17.640625 -37.015625 C 17.765625 -37.015625 17.828125 -36.894531 17.828125 -36.65625 C 17.828125 -36.414062 17.765625 -36.296875 17.640625 -36.296875 C 16.421875 -36.296875 15.515625 -36.175781 14.921875 -35.9375 C 14.328125 -35.707031 13.929688 -35.304688 13.734375 -34.734375 C 13.535156 -34.160156 13.4375 -33.28125 13.4375 -32.09375 Z M 13.4375 -4.796875 "/></g></g></g><g fill="#f4f1e8" fill-opacity="1"><g transform="translate(98.264379, 54.839972)"><g><path d="M 39.375 -37.015625 C 39.5 -37.015625 39.5625 -36.894531 39.5625 -36.65625 C 39.5625 -36.414062 39.5 -36.296875 39.375 -36.296875 C 37.957031 -36.296875 36.597656 -35.664062 35.296875 -34.40625 C 33.992188 -33.144531 32.945312 -31.445312 32.15625 -29.3125 L 21.203125 -0.0625 C 21.160156 0.09375 20.941406 0.171875 20.546875 0.171875 C 20.148438 0.171875 19.929688 0.09375 19.890625 -0.0625 L 4.796875 -32.09375 C 4.085938 -33.519531 3.375 -34.578125 2.65625 -35.265625 C 1.945312 -35.953125 1.160156 -36.296875 0.296875 -36.296875 C 0.179688 -36.296875 0.125 -36.414062 0.125 -36.65625 C 0.125 -36.894531 0.179688 -37.015625 0.296875 -37.015625 C 0.890625 -37.015625 1.304688 -36.992188 1.546875 -36.953125 C 2.328125 -36.867188 3.351562 -36.828125 4.625 -36.828125 C 8.019531 -36.828125 10.898438 -36.867188 13.265625 -36.953125 C 13.898438 -36.992188 14.691406 -37.015625 15.640625 -37.015625 C 15.753906 -37.015625 15.8125 -36.894531 15.8125 -36.65625 C 15.8125 -36.414062 15.753906 -36.296875 15.640625 -36.296875 C 14.453125 -36.296875 13.53125 -36.050781 12.875 -35.5625 C 12.226562 -35.070312 11.90625 -34.367188 11.90625 -33.453125 C 11.90625 -32.785156 12.117188 -31.976562 12.546875 -31.03125 L 22.796875 -9.171875 L 30.5 -29.484375 C 30.894531 -30.597656 31.09375 -31.546875 31.09375 -32.328125 C 31.09375 -33.554688 30.726562 -34.523438 30 -35.234375 C 29.269531 -35.941406 28.210938 -36.296875 26.828125 -36.296875 C 26.703125 -36.296875 26.640625 -36.414062 26.640625 -36.65625 C 26.640625 -36.894531 26.703125 -37.015625 26.828125 -37.015625 L 29.734375 -36.953125 C 31.390625 -36.867188 32.867188 -36.828125 34.171875 -36.828125 C 34.921875 -36.828125 35.847656 -36.867188 36.953125 -36.953125 Z M 39.375 -37.015625 "/></g></g></g><g fill="#f4f1e8" fill-opacity="1"><g transform="translate(137.35357, 54.839972)"><g><path d="M 29.375 -9.421875 C 29.375 -9.492188 29.453125 -9.53125 29.609375 -9.53125 C 29.722656 -9.53125 29.828125 -9.5 29.921875 -9.4375 C 30.023438 -9.382812 30.078125 -9.335938 30.078125 -9.296875 C 29.679688 -6.210938 29.484375 -3.410156 29.484375 -0.890625 C 29.484375 -0.578125 29.425781 -0.347656 29.3125 -0.203125 C 29.195312 -0.0664062 28.960938 0 28.609375 0 L 2.421875 0 C 2.304688 0 2.25 -0.113281 2.25 -0.34375 C 2.25 -0.582031 2.304688 -0.703125 2.421875 -0.703125 C 3.691406 -0.703125 4.613281 -0.800781 5.1875 -1 C 5.757812 -1.195312 6.140625 -1.582031 6.328125 -2.15625 C 6.523438 -2.726562 6.625 -3.609375 6.625 -4.796875 L 6.625 -32.21875 C 6.625 -33.394531 6.523438 -34.257812 6.328125 -34.8125 C 6.140625 -35.375 5.75 -35.757812 5.15625 -35.96875 C 4.5625 -36.1875 3.648438 -36.296875 2.421875 -36.296875 C 2.304688 -36.296875 2.25 -36.414062 2.25 -36.65625 C 2.25 -36.894531 2.304688 -37.015625 2.421875 -37.015625 L 27.53125 -37.015625 C 27.925781 -37.015625 28.125 -36.835938 28.125 -36.484375 L 28.25 -28.609375 C 28.25 -28.523438 28.140625 -28.460938 27.921875 -28.421875 C 27.703125 -28.378906 27.570312 -28.421875 27.53125 -28.546875 C 26.90625 -30.835938 25.84375 -32.535156 24.34375 -33.640625 C 22.84375 -34.742188 20.867188 -35.296875 18.421875 -35.296875 L 16.640625 -35.296875 C 15.453125 -35.296875 14.582031 -35.035156 14.03125 -34.515625 C 13.476562 -34.003906 13.203125 -33.21875 13.203125 -32.15625 L 13.203125 -20.078125 L 18.125 -20.078125 C 20.414062 -20.078125 22.171875 -20.46875 23.390625 -21.25 C 24.617188 -22.039062 25.234375 -23.148438 25.234375 -24.578125 C 25.234375 -24.691406 25.335938 -24.75 25.546875 -24.75 C 25.765625 -24.75 25.875 -24.691406 25.875 -24.578125 L 25.8125 -19.25 L 25.875 -16.40625 C 25.957031 -15.0625 26 -13.992188 26 -13.203125 C 26 -13.128906 25.878906 -13.09375 25.640625 -13.09375 C 25.398438 -13.09375 25.28125 -13.128906 25.28125 -13.203125 C 25.28125 -14.828125 24.660156 -16.101562 23.421875 -17.03125 C 22.179688 -17.957031 20.394531 -18.421875 18.0625 -18.421875 L 13.203125 -18.421875 L 13.203125 -5.03125 C 13.203125 -3.882812 13.421875 -3.035156 13.859375 -2.484375 C 14.296875 -1.929688 14.988281 -1.65625 15.9375 -1.65625 L 17.890625 -1.65625 C 20.960938 -1.65625 23.425781 -2.285156 25.28125 -3.546875 C 27.132812 -4.816406 28.5 -6.773438 29.375 -9.421875 Z M 29.375 -9.421875 "/></g></g></g></g></g></svg>