<svg xmlns="http://www.w3.org/2000/svg" xmlns:xlink="http://www.w3.org/1999/xlink" width="200" zoomAndPan="magnify" viewBox="0 0 150 74.999997" height="100" preserveAspectRatio="xMidYMid meet" version="1.0"><defs><g/><clipPath id="75875228a7"><path d="M 0.839844 0.238281 L 64 0.238281 L 64 72 L 0.839844 72 Z M 0.839844 0.238281 " clip-rule="nonzero"/></clipPath><clipPath id="303a55c4c5"><rect x="0" width="95" y="0" height="41"/></clipPath><clipPath id="d69e2ef4cc"><rect x="0" width="147" y="0" height="73"/></clipPath></defs><g transform="matrix(1, 0, 0, 1, 3, -0.000000000000001887)"><g clip-path="url(#d69e2ef4cc)"><g clip-path="url(#75875228a7)"><path fill="#f4f1e8" d="M 46.421875 70.683594 C 45.285156 71.785156 44.230469 72.105469 43.410156 71.585938 C 42.8125 71.203125 42.277344 69.484375 41.777344 66.3125 C 41.355469 63.65625 41.285156 61.503906 41.292969 51.972656 C 41.300781 45.09375 41.433594 39.5 41.640625 37.507812 C 41.828125 35.71875 41.914062 34.191406 41.839844 34.113281 C 41.757812 34.039062 40.25 34.355469 38.480469 34.828125 C 29.625 37.175781 25 37.289062 18.632812 35.304688 L 16.503906 34.640625 L 14.882812 37.167969 C 13.992188 38.558594 12.398438 40.972656 11.34375 42.539062 C 10.292969 44.097656 9.472656 45.417969 9.519531 45.46875 C 9.570312 45.515625 10.265625 45.417969 11.066406 45.246094 C 11.863281 45.074219 13.429688 44.992188 14.542969 45.0625 C 16.214844 45.171875 16.761719 45.332031 17.703125 45.996094 C 19.335938 47.140625 20.71875 49.277344 21.625 52.042969 C 22.324219 54.179688 22.410156 54.816406 22.410156 57.992188 C 22.410156 62.394531 21.828125 64.261719 19.8125 66.332031 C 17.847656 68.347656 16.550781 68.921875 13.925781 68.925781 C 11.902344 68.929688 11.617188 68.859375 10.3125 68.019531 C 8.609375 66.925781 7.359375 65.144531 7.101562 63.4375 C 6.847656 61.746094 7.101562 61.613281 7.742188 63.109375 C 8.898438 65.808594 11.105469 67.417969 13.65625 67.417969 C 16.195312 67.417969 18.40625 65.8125 19.601562 63.105469 C 20.066406 62.054688 20.121094 61.410156 20.035156 58.03125 C 19.9375 54.261719 19.910156 54.109375 18.960938 52.105469 C 17.207031 48.390625 15.226562 46.910156 12.558594 47.3125 C 10.78125 47.574219 7.277344 49.453125 5.253906 51.214844 C 2.695312 53.449219 2.40625 53.613281 1.613281 53.25 C 0.460938 52.722656 0.78125 51.898438 3.28125 48.964844 C 4.566406 47.460938 6.449219 44.992188 7.472656 43.476562 C 9.515625 40.449219 13.269531 33.261719 14.21875 30.5625 C 14.898438 28.628906 15.542969 27.769531 16.316406 27.769531 C 17.328125 27.769531 17.886719 28.328125 18.308594 29.785156 C 18.8125 31.519531 19.410156 32.132812 21.589844 33.152344 C 23.171875 33.894531 23.382812 33.921875 27.605469 33.921875 C 30.765625 33.921875 32.628906 33.785156 34.304688 33.433594 C 37.625 32.734375 41.832031 31.402344 42.230469 30.925781 C 42.414062 30.699219 42.734375 29.375 42.945312 27.980469 C 43.484375 24.367188 44.050781 21.617188 45.164062 17.238281 C 47.53125 7.921875 50.300781 2.59375 53.574219 1.066406 C 55.90625 -0.0195312 57.898438 0.34375 60 2.234375 C 62.246094 4.253906 63.296875 7.371094 63.296875 12.023438 C 63.296875 16.960938 61.773438 20.5625 58.132812 24.191406 C 55.597656 26.722656 53.480469 28.226562 49.285156 30.480469 C 45.304688 32.625 45.613281 32.132812 44.96875 37.339844 C 43.992188 45.222656 43.527344 62.65625 44.175781 66.964844 C 44.640625 70.03125 45.082031 70.464844 47.023438 69.761719 C 47.359375 69.640625 47.121094 70 46.421875 70.683594 Z M 46.339844 28.484375 C 46.339844 29.335938 46.777344 29.242188 49.347656 27.832031 C 54.875 24.808594 58.882812 20.765625 60.269531 16.816406 C 61.808594 12.4375 60.921875 6.714844 58.34375 4.386719 C 54.777344 1.167969 51.4375 6.011719 48.152344 19.152344 C 47.328125 22.460938 46.339844 27.539062 46.339844 28.484375 Z M 53.808594 60.136719 C 52.769531 60.671875 52.042969 60.710938 51.59375 60.261719 C 50.945312 59.617188 51.292969 59.1875 53.101562 58.375 C 54.109375 57.921875 56.023438 56.925781 57.347656 56.160156 C 58.671875 55.394531 59.847656 54.859375 59.957031 54.972656 C 60.269531 55.292969 55.609375 59.210938 53.808594 60.136719 Z M 53.808594 60.136719 " fill-opacity="1" fill-rule="nonzero"/></g><g transform="matrix(1, 0, 0, 1, 52, 19)"><g clip-path="url(#303a55c4c5)"><g fill="#f4f1e8" fill-opacity="1"><g transform="translate(0.615721, 31.175968)"><g><path d="M 12.046875 0.390625 C 10.003906 0.390625 8.1875 -0.0820312 6.59375 -1.03125 C 5.007812 -1.988281 3.78125 -3.285156 2.90625 -4.921875 C 2.039062 -6.554688 1.609375 -8.335938 1.609375 -10.265625 C 1.609375 -12.523438 2.175781 -14.460938 3.3125 -16.078125 C 4.457031 -17.691406 5.925781 -18.90625 7.71875 -19.71875 C 9.507812 -20.53125 11.335938 -20.9375 13.203125 -20.9375 C 15.285156 -20.9375 17.113281 -20.445312 18.6875 -19.46875 C 20.269531 -18.5 21.484375 -17.210938 22.328125 -15.609375 C 23.179688 -14.003906 23.609375 -12.300781 23.609375 -10.5 C 23.609375 -8.5 23.078125 -6.664062 22.015625 -5 C 20.960938 -3.332031 19.550781 -2.015625 17.78125 -1.046875 C 16.019531 -0.0859375 14.109375 0.390625 12.046875 0.390625 Z M 13.140625 -0.421875 C 14.367188 -0.421875 15.46875 -0.773438 16.4375 -1.484375 C 17.414062 -2.203125 18.179688 -3.25 18.734375 -4.625 C 19.285156 -6 19.5625 -7.640625 19.5625 -9.546875 C 19.5625 -11.566406 19.253906 -13.367188 18.640625 -14.953125 C 18.023438 -16.546875 17.132812 -17.789062 15.96875 -18.6875 C 14.800781 -19.59375 13.441406 -20.046875 11.890625 -20.046875 C 9.890625 -20.046875 8.347656 -19.296875 7.265625 -17.796875 C 6.191406 -16.296875 5.65625 -14.191406 5.65625 -11.484375 C 5.65625 -9.359375 5.976562 -7.457031 6.625 -5.78125 C 7.28125 -4.101562 8.171875 -2.789062 9.296875 -1.84375 C 10.429688 -0.894531 11.710938 -0.421875 13.140625 -0.421875 Z M 13.140625 -0.421875 "/></g></g></g><g fill="#f4f1e8" fill-opacity="1"><g transform="translate(25.830767, 31.175968)"><g><path d="M 7.015625 -2.796875 C 7.015625 -2.222656 7.054688 -1.8125 7.140625 -1.5625 C 7.234375 -1.3125 7.40625 -1.140625 7.65625 -1.046875 C 7.90625 -0.960938 8.316406 -0.921875 8.890625 -0.921875 L 10.015625 -0.921875 C 11.722656 -0.921875 13.203125 -1.375 14.453125 -2.28125 C 15.703125 -3.195312 16.535156 -4.429688 16.953125 -5.984375 C 16.953125 -6.035156 17 -6.0625 17.09375 -6.0625 C 17.132812 -6.0625 17.179688 -6.039062 17.234375 -6 C 17.285156 -5.96875 17.3125 -5.941406 17.3125 -5.921875 C 17.113281 -3.753906 17.015625 -1.945312 17.015625 -0.5 C 17.015625 -0.320312 16.976562 -0.191406 16.90625 -0.109375 C 16.832031 -0.0351562 16.707031 0 16.53125 0 L 0.984375 0 C 0.941406 0 0.921875 -0.0625 0.921875 -0.1875 C 0.921875 -0.320312 0.941406 -0.390625 0.984375 -0.390625 C 1.691406 -0.390625 2.203125 -0.441406 2.515625 -0.546875 C 2.835938 -0.660156 3.054688 -0.875 3.171875 -1.1875 C 3.296875 -1.507812 3.359375 -2.003906 3.359375 -2.671875 L 3.359375 -17.90625 C 3.359375 -18.5625 3.296875 -19.039062 3.171875 -19.34375 C 3.054688 -19.65625 2.832031 -19.875 2.5 -20 C 2.175781 -20.125 1.671875 -20.1875 0.984375 -20.1875 C 0.941406 -20.1875 0.921875 -20.25 0.921875 -20.375 C 0.921875 -20.507812 0.941406 -20.578125 0.984375 -20.578125 L 2.671875 -20.546875 C 3.679688 -20.503906 4.515625 -20.484375 5.171875 -20.484375 C 5.828125 -20.484375 6.660156 -20.503906 7.671875 -20.546875 L 9.34375 -20.578125 C 9.414062 -20.578125 9.453125 -20.507812 9.453125 -20.375 C 9.453125 -20.25 9.414062 -20.1875 9.34375 -20.1875 C 8.664062 -20.1875 8.160156 -20.125 7.828125 -20 C 7.503906 -19.875 7.285156 -19.648438 7.171875 -19.328125 C 7.066406 -19.015625 7.015625 -18.53125 7.015625 -17.875 Z M 7.015625 -2.796875 "/></g></g></g><g fill="#f4f1e8" fill-opacity="1"><g transform="translate(43.770981, 31.175968)"><g><path d="M 7.46875 -2.671875 C 7.46875 -1.984375 7.519531 -1.484375 7.625 -1.171875 C 7.738281 -0.867188 7.953125 -0.660156 8.265625 -0.546875 C 8.585938 -0.441406 9.101562 -0.390625 9.8125 -0.390625 C 9.875 -0.390625 9.90625 -0.320312 9.90625 -0.1875 C 9.90625 -0.0625 9.875 0 9.8125 0 C 9.082031 0 8.507812 -0.0078125 8.09375 -0.03125 L 5.59375 -0.0625 L 3.15625 -0.03125 C 2.71875 -0.0078125 2.125 0 1.375 0 C 1.332031 0 1.3125 -0.0625 1.3125 -0.1875 C 1.3125 -0.320312 1.332031 -0.390625 1.375 -0.390625 C 2.082031 -0.390625 2.597656 -0.441406 2.921875 -0.546875 C 3.253906 -0.660156 3.476562 -0.875 3.59375 -1.1875 C 3.71875 -1.507812 3.78125 -2.003906 3.78125 -2.671875 L 3.78125 -17.90625 C 3.78125 -18.5625 3.71875 -19.039062 3.59375 -19.34375 C 3.476562 -19.65625 3.253906 -19.875 2.921875 -20 C 2.597656 -20.125 2.082031 -20.1875 1.375 -20.1875 C 1.332031 -20.1875 1.3125 -20.25 1.3125 -20.375 C 1.3125 -20.507812 1.332031 -20.578125 1.375 -20.578125 L 3.15625 -20.546875 C 4.164062 -20.503906 4.976562 -20.484375 5.59375 -20.484375 C 6.28125 -20.484375 7.125 -20.503906 8.125 -20.546875 L 9.8125 -20.578125 C 9.875 -20.578125 9.90625 -20.507812 9.90625 -20.375 C 9.90625 -20.25 9.875 -20.1875 9.8125 -20.1875 C 9.132812 -20.1875 8.628906 -20.117188 8.296875 -19.984375 C 7.960938 -19.847656 7.738281 -19.617188 7.625 -19.296875 C 7.519531 -18.984375 7.46875 -18.5 7.46875 -17.84375 Z M 7.46875 -2.671875 "/></g></g></g><g fill="#f4f1e8" fill-opacity="1"><g transform="translate(55.028877, 31.175968)"><g><path d="M 21.890625 -20.578125 C 21.953125 -20.578125 21.984375 -20.507812 21.984375 -20.375 C 21.984375 -20.25 21.953125 -20.1875 21.890625 -20.1875 C 21.097656 -20.1875 20.335938 -19.832031 19.609375 -19.125 C 18.890625 -18.425781 18.3125 -17.484375 17.875 -16.296875 L 11.78125 -0.03125 C 11.757812 0.0507812 11.640625 0.09375 11.421875 0.09375 C 11.203125 0.09375 11.082031 0.0507812 11.0625 -0.03125 L 2.671875 -17.84375 C 2.273438 -18.632812 1.878906 -19.222656 1.484375 -19.609375 C 1.085938 -19.992188 0.648438 -20.1875 0.171875 -20.1875 C 0.0976562 -20.1875 0.0625 -20.25 0.0625 -20.375 C 0.0625 -20.507812 0.0976562 -20.578125 0.171875 -20.578125 C 0.492188 -20.578125 0.722656 -20.566406 0.859375 -20.546875 C 1.296875 -20.503906 1.863281 -20.484375 2.5625 -20.484375 C 4.457031 -20.484375 6.0625 -20.503906 7.375 -20.546875 C 7.726562 -20.566406 8.164062 -20.578125 8.6875 -20.578125 C 8.757812 -20.578125 8.796875 -20.507812 8.796875 -20.375 C 8.796875 -20.25 8.757812 -20.1875 8.6875 -20.1875 C 8.03125 -20.1875 7.519531 -20.046875 7.15625 -19.765625 C 6.800781 -19.492188 6.625 -19.101562 6.625 -18.59375 C 6.625 -18.226562 6.742188 -17.78125 6.984375 -17.25 L 12.671875 -5.109375 L 16.953125 -16.390625 C 17.171875 -17.003906 17.28125 -17.53125 17.28125 -17.96875 C 17.28125 -18.65625 17.078125 -19.195312 16.671875 -19.59375 C 16.265625 -19.988281 15.675781 -20.1875 14.90625 -20.1875 C 14.84375 -20.1875 14.8125 -20.25 14.8125 -20.375 C 14.8125 -20.507812 14.84375 -20.578125 14.90625 -20.578125 L 16.53125 -20.546875 C 17.445312 -20.503906 18.269531 -20.484375 19 -20.484375 C 19.414062 -20.484375 19.929688 -20.503906 20.546875 -20.546875 Z M 21.890625 -20.578125 "/></g></g></g><g fill="#f4f1e8" fill-opacity="1"><g transform="translate(76.754638, 31.175968)"><g><path d="M 16.328125 -5.234375 C 16.328125 -5.273438 16.367188 -5.296875 16.453125 -5.296875 C 16.523438 -5.296875 16.585938 -5.28125 16.640625 -5.25 C 16.691406 -5.21875 16.71875 -5.191406 16.71875 -5.171875 C 16.5 -3.453125 16.390625 -1.894531 16.390625 -0.5 C 16.390625 -0.320312 16.359375 -0.191406 16.296875 -0.109375 C 16.234375 -0.0351562 16.101562 0 15.90625 0 L 1.34375 0 C 1.28125 0 1.25 -0.0625 1.25 -0.1875 C 1.25 -0.320312 1.28125 -0.390625 1.34375 -0.390625 C 2.050781 -0.390625 2.5625 -0.441406 2.875 -0.546875 C 3.195312 -0.660156 3.410156 -0.875 3.515625 -1.1875 C 3.628906 -1.507812 3.6875 -2.003906 3.6875 -2.671875 L 3.6875 -17.90625 C 3.6875 -18.5625 3.628906 -19.039062 3.515625 -19.34375 C 3.410156 -19.65625 3.191406 -19.875 2.859375 -20 C 2.535156 -20.125 2.03125 -20.1875 1.34375 -20.1875 C 1.28125 -20.1875 1.25 -20.25 1.25 -20.375 C 1.25 -20.507812 1.28125 -20.578125 1.34375 -20.578125 L 15.3125 -20.578125 C 15.53125 -20.578125 15.640625 -20.476562 15.640625 -20.28125 L 15.703125 -15.90625 C 15.703125 -15.851562 15.640625 -15.816406 15.515625 -15.796875 C 15.398438 -15.773438 15.332031 -15.800781 15.3125 -15.875 C 14.957031 -17.144531 14.363281 -18.085938 13.53125 -18.703125 C 12.695312 -19.316406 11.597656 -19.625 10.234375 -19.625 L 9.25 -19.625 C 8.59375 -19.625 8.109375 -19.476562 7.796875 -19.1875 C 7.492188 -18.90625 7.34375 -18.46875 7.34375 -17.875 L 7.34375 -11.15625 L 10.078125 -11.15625 C 11.347656 -11.15625 12.320312 -11.375 13 -11.8125 C 13.6875 -12.257812 14.03125 -12.875 14.03125 -13.65625 C 14.03125 -13.726562 14.085938 -13.765625 14.203125 -13.765625 C 14.328125 -13.765625 14.390625 -13.726562 14.390625 -13.65625 L 14.359375 -10.703125 L 14.390625 -9.125 C 14.429688 -8.375 14.453125 -7.78125 14.453125 -7.34375 C 14.453125 -7.300781 14.382812 -7.28125 14.25 -7.28125 C 14.125 -7.28125 14.0625 -7.300781 14.0625 -7.34375 C 14.0625 -8.238281 13.710938 -8.941406 13.015625 -9.453125 C 12.328125 -9.972656 11.335938 -10.234375 10.046875 -10.234375 L 7.34375 -10.234375 L 7.34375 -2.796875 C 7.34375 -2.160156 7.460938 -1.6875 7.703125 -1.375 C 7.941406 -1.070312 8.328125 -0.921875 8.859375 -0.921875 L 9.9375 -0.921875 C 11.65625 -0.921875 13.03125 -1.269531 14.0625 -1.96875 C 15.09375 -2.675781 15.847656 -3.765625 16.328125 -5.234375 Z M 16.328125 -5.234375 "/></g></g></g></g></g></g></g></svg>